<?xml version="1.0" standalone="no"?>
<!DOCTYPE svg PUBLIC "-//W3C//DTD SVG 20010904//EN"
 "http://www.w3.org/TR/2001/REC-SVG-20010904/DTD/svg10.dtd">
<svg version="1.0" xmlns="http://www.w3.org/2000/svg"
 width="700.000000pt" height="700.000000pt" viewBox="0 0 700.000000 700.000000"
 preserveAspectRatio="xMidYMid meet">
<metadata>
Created by potrace 1.11, written by Peter Selinger 2001-2013
</metadata>
<g transform="translate(0.000000,700.000000) scale(0.100000,-0.100000)"
fill="#000000" stroke="none">
<path d="M4630 6558 c-25 -4 -85 -27 -135 -52 -486 -240 -845 -711 -954 -1253
-32 -155 -38 -219 -40 -378 l-1 -91 -82 13 c-83 12 -450 12 -513 -1 -16 -3
-46 -9 -65 -12 -19 -3 -46 -8 -60 -10 -14 -3 -67 -16 -118 -30 -379 -102 -695
-304 -960 -613 -124 -144 -256 -359 -333 -542 -70 -168 -154 -458 -158 -551
-1 -11 -14 -18 -43 -23 -57 -9 -245 -60 -300 -81 -121 -47 -323 -156 -385
-209 -155 -132 -220 -203 -295 -320 -90 -140 -151 -307 -175 -476 -10 -69 -10
-304 0 -389 46 -409 288 -752 658 -933 206 -101 363 -141 624 -163 106 -9
3405 -9 3515 0 47 4 92 9 100 11 8 2 33 6 55 10 142 20 359 91 509 166 72 37
243 142 256 158 3 3 28 24 55 45 78 62 200 193 268 288 159 225 249 459 282
738 12 106 6 363 -11 444 -3 12 -9 44 -15 71 -23 121 -60 229 -122 365 -36 78
-162 262 -231 335 -66 70 -75 85 -55 85 40 0 301 124 413 197 149 96 340 267
426 382 14 18 34 45 46 59 78 98 202 332 211 397 18 132 -90 249 -227 247 -19
-1 -62 -12 -96 -26 -235 -96 -580 -117 -871 -52 -62 14 -219 74 -296 114 -395
202 -666 584 -731 1027 -13 90 -14 312 -2 414 11 90 33 183 71 294 41 125 43
155 11 223 -41 88 -134 138 -226 122z m-303 -845 c0 -326 63 -587 209 -861 47
-89 126 -217 143 -232 3 -3 22 -25 41 -50 54 -71 166 -187 250 -260 51 -44
187 -138 267 -184 191 -110 442 -196 648 -221 28 -4 61 -8 75 -11 14 -2 93 -4
175 -5 l150 0 -50 -45 c-93 -84 -251 -180 -399 -244 -57 -24 -251 -76 -316
-84 -153 -20 -182 -18 -280 14 -95 31 -184 55 -230 63 -103 19 -100 18 -117
61 -53 133 -209 390 -304 501 -72 83 -215 221 -276 267 -32 24 -60 45 -63 48
-7 8 -121 83 -150 99 -14 7 -51 27 -82 42 -39 20 -59 37 -62 52 -32 156 -19
385 33 588 37 143 135 347 223 462 27 36 111 137 114 137 0 0 1 -62 1 -137z
m-992 -1347 c81 -10 129 -17 136 -22 4 -2 24 -6 45 -10 56 -9 199 -61 284
-103 325 -163 553 -420 713 -803 35 -83 116 -165 209 -210 23 -12 95 -32 158
-45 651 -137 1020 -540 1023 -1118 1 -192 -15 -281 -76 -440 -81 -213 -256
-420 -454 -541 -103 -63 -302 -144 -389 -160 -16 -3 -49 -10 -73 -15 -25 -5
-79 -13 -120 -16 -42 -4 -839 -7 -1771 -7 -1833 0 -1796 -1 -1981 54 -151 45
-282 117 -375 208 -108 104 -188 261 -209 407 -4 22 -8 51 -11 65 -8 44 -5
223 5 275 32 176 96 299 218 419 135 134 320 225 563 276 133 28 217 68 284
135 68 69 103 143 132 282 91 439 273 776 549 1014 234 202 533 330 830 356
39 3 71 6 72 7 5 4 183 -2 238 -8z"/>
</g>
</svg>
